<svg fill="none" height="70" viewBox="0 0 270 70" width="270" xmlns="http://www.w3.org/2000/svg"><g fill="#fff"><path d="m.320312 69.0001h3.948868v-4.3182h2.1875c3.31676 0 5.53972-1.9531 5.53972-5.0852 0-3.0966-2.16614-5.1421-5.39768-5.1421h-6.278408zm3.948868-7.3864v-4.0057h1.39204c1.38495 0 2.21591.7387 2.21591 1.9887 0 1.2429-.83096 2.017-2.21591 2.017z"/><path d="m13.4453 69.0001h3.9489v-4.8012h1.3636l2.5568 4.8012h4.2898l-2.9545-5.4262c1.5483-.7457 2.4715-2.159 2.4715-4.1761 0-3.0966-2.1661-4.9432-5.3977-4.9432h-6.2784zm3.9489-7.8693v-3.5228h1.392c1.385 0 2.2159.5398 2.2159 1.7898 0 1.2429-.8309 1.733-2.2159 1.733z"/><path d="m30.5832 69.0001.8381-2.7841h4.8011l.8381 2.7841h4.2613l-4.8011-14.5455h-5.3977l-4.8012 14.5455zm1.733-5.7387 1.4488-4.8011h.1137l1.4488 4.8011z"/><path d="m55.6188 59.9093c-.3125-3.608-2.9545-5.6534-6.6193-5.6534-3.9205 0-7.0171 2.6136-7.0171 7.4716 0 4.8366 3.0114 7.4715 7.0171 7.4715 4.2614 0 6.4204-2.9545 6.6193-5.4261l-4.0057-.0284c-.1988 1.2429-1.0795 2.017-2.5284 2.017-1.9247 0-3.0398-1.3636-3.0398-4.034 0-2.5285 1.0796-4.0341 3.0682-4.0341 1.5199 0 2.3864.8948 2.5 2.2159z"/><path d="m57.0122 57.6364h4.375v11.3637h3.8921v-11.3637h4.375v-3.1818h-12.6421z"/><path d="m75.0895 54.4546h-3.9489v14.5455h3.9489z"/><path d="m90.5407 59.9093c-.3125-3.608-2.9546-5.6534-6.6193-5.6534-3.9205 0-7.0171 2.6136-7.0171 7.4716 0 4.8366 3.0114 7.4715 7.0171 7.4715 4.2613 0 6.4204-2.9545 6.6193-5.4261l-4.0057-.0284c-.1989 1.2429-1.0795 2.017-2.5284 2.017-1.9247 0-3.0398-1.3636-3.0398-4.034 0-2.5285 1.0796-4.0341 3.0682-4.0341 1.5199 0 2.3864.8948 2.5 2.2159z"/><path d="m100.94 54.4546v8.9773c0 1.3565-.973 2.3295-2.3296 2.3295-1.3565 0-2.3295-.973-2.3295-2.3295v-8.9773h-3.9489v9.3182c0 3.3239 2.5142 5.3977 6.2784 5.3977 3.7356 0 6.2786-2.0738 6.2786-5.3977v-9.3182z"/><path d="m106.766 54.4546v14.5455h3.863v-8.4659h.114l3.239 8.3522h2.329l3.239-8.2954h.113v8.4091h3.864v-14.5455h-4.915l-3.38 8.2387h-.171l-3.381-8.2387z"/><path d="m133.161 69.0001.838-2.7841h4.801l.838 2.7841h4.262l-4.801-14.5455h-5.398l-4.801 14.5455zm1.733-5.7387 1.449-4.8011h.114l1.449 4.8011z"/><path d="m145.301 69.0001h3.949v-4.8012h1.363l2.557 4.8012h4.29l-2.955-5.4262c1.549-.7457 2.472-2.159 2.472-4.1761 0-3.0966-2.166-4.9432-5.398-4.9432h-6.278zm3.949-7.8693v-3.5228h1.392c1.385 0 2.216.5398 2.216 1.7898 0 1.2429-.831 1.733-2.216 1.733z"/><path d="m158.262 57.6364h4.375v11.3637h3.892v-11.3637h4.375v-3.1818h-12.642z"/><path d="m185.821 59.2559h3.991c-.305-2.9191-2.954-5-6.392-5-3.92 0-7.102 2.6988-7.102 7.5 0 4.6022 2.884 7.4431 7.131 7.4431 3.807 0 6.534-2.3295 6.534-6.3068v-2.017h-6.449v2.8125h2.642c-.035 1.2642-.93 2.0738-2.699 2.0738-2.045 0-3.096-1.5056-3.096-4.0625 0-2.5213 1.136-4.0056 3.125-4.0056 1.235 0 2.074.5681 2.315 1.5625z"/><path d="m195.153 69.0001.838-2.7841h4.802l.838 2.7841h4.261l-4.801-14.5455h-5.398l-4.801 14.5455zm1.733-5.7387 1.449-4.8011h.114l1.449 4.8011z"/><path d="m207.293 69.0001h9.83v-3.1818h-5.881v-11.3637h-3.949z"/><path d="m218.719 69.0001h9.829v-3.1818h-5.88v-11.3637h-3.949z"/><path d="m230.145 69.0001h10.454v-3.1818h-6.506v-2.5h5.995v-3.1819h-5.995v-2.5h6.534v-3.1818h-10.482z"/><path d="m242.586 69.0001h3.949v-4.8012h1.363l2.557 4.8012h4.29l-2.955-5.4262c1.549-.7457 2.472-2.159 2.472-4.1761 0-3.0966-2.166-4.9432-5.398-4.9432h-6.278zm3.949-7.8693v-3.5228h1.392c1.385 0 2.216.5398 2.216 1.7898 0 1.2429-.831 1.733-2.216 1.733z"/><path d="m254.665 54.4546 5.341 9.9716v4.5739h3.92v-4.5739l5.341-9.9716h-4.403l-2.841 5.9091h-.114l-2.84-5.9091z"/></g><path d="m118 2c0-1.104569.895-2 2-2h28c1.105 0 2 .895431 2 2v28c0 1.1046-.895 2-2 2h-28c-1.105 0-2-.8954-2-2z" fill="#0278fe"/><path d="m150 6h-32v2h32z" fill="#2a2c2f"/><path d="m131 6h-2v26h2z" fill="#2a2c2f"/></svg>